<?xml version="1.0" encoding="UTF-8"?>
<svg version="1.1" xmlns="http://www.w3.org/2000/svg" width="666" height="375">
<path d="M0 0 C0.89750977 0.60489258 1.79501953 1.20978516 2.71972656 1.83300781 C4.06335576 2.60280173 5.41163561 3.36459832 6.76660156 4.11425781 C8.0032748 4.84999176 9.23759974 5.58968511 10.46972656 6.33300781 C11.93424304 7.20465168 13.39910762 8.07571084 14.86425781 8.94628906 C15.64236816 9.40986816 16.42047852 9.87344727 17.22216797 10.35107422 C21.85285047 13.09870304 26.505709 15.80835192 31.15722656 18.52050781 C32.16019775 19.10590332 33.16316895 19.69129883 34.1965332 20.29443359 C40.78874805 24.13777321 47.39389574 27.95777688 54.01538086 31.75048828 C56.25986893 33.04583885 58.49593912 34.3558964 60.72290039 35.68115234 C67.25357174 39.57806644 67.25357174 39.57806644 74.24707031 42.50097656 C78.31536988 44.07793959 80.00868981 45.44025864 82.71972656 48.83300781 C83.40209961 52.19604492 83.40209961 52.19604492 83.48144531 55.98535156 C83.49970871 56.65373047 83.51797211 57.32210937 83.53678894 58.01074219 C83.67011768 64.97220642 83.22482086 71.89119903 82.71972656 78.83300781 C74.13972656 78.83300781 65.55972656 78.83300781 56.71972656 78.83300781 C55.92901392 74.8794446 55.71516487 73.04487881 56.09472656 69.31347656 C56.18410187 66.9797275 56.18410187 66.9797275 55.71972656 64.83300781 C53.26449633 62.6346427 51.60241191 61.54045985 48.71972656 60.14550781 C47.14982777 59.3060212 45.58087012 58.46477297 44.01269531 57.62207031 C43.15981934 57.17766602 42.30694336 56.73326172 41.42822266 56.27539062 C36.5432805 53.67396298 31.80103196 50.82729702 27.03222656 48.02050781 C26.02498535 47.43696533 25.01774414 46.85342285 23.97998047 46.25219727 C18.77224537 43.235083 13.61121267 40.16365008 8.50488281 36.97753906 C7.51125732 36.36563721 6.51763184 35.75373535 5.49389648 35.12329102 C3.60205895 33.95505147 1.72008858 32.77063496 -0.15014648 31.56811523 C-4.94997277 28.48613227 -4.94997277 28.48613227 -10.44433594 28.22753906 C-11.38019531 28.75734375 -12.31605469 29.28714844 -13.28027344 29.83300781 C-14.39917969 30.4453125 -15.51808594 31.05761719 -16.67089844 31.68847656 C-17.96050706 32.46058275 -19.2467505 33.23832674 -20.53027344 34.02050781 C-22.03208248 34.92027379 -23.53474568 35.81861505 -25.03808594 36.71582031 C-25.86469727 37.20985352 -26.69130859 37.70388672 -27.54296875 38.21289062 C-32.80075995 41.32479772 -38.10713288 44.35299618 -43.40527344 47.39550781 C-51.36039012 51.96654311 -59.29711786 56.55701952 -67.09326172 61.39575195 C-71.06911376 63.83300781 -71.06911376 63.83300781 -73.28027344 63.83300781 C-73.28027344 89.24300781 -73.28027344 114.65300781 -73.28027344 140.83300781 C-71.30027344 141.49300781 -69.32027344 142.15300781 -67.28027344 142.83300781 C-64.81686921 144.18106888 -62.42522113 145.56113683 -60.03027344 147.02050781 C-58.52972716 147.91890681 -57.02836878 148.81595028 -55.52636719 149.71191406 C-54.28669189 150.45272217 -54.28669189 150.45272217 -53.02197266 151.20849609 C-46.6160818 155.00411477 -40.15271061 158.70215479 -33.69458008 162.40795898 C-28.99900189 165.10335721 -24.30737328 167.79731161 -19.67871094 170.60644531 C-19.03442139 170.9923584 -18.39013184 171.37827148 -17.72631836 171.77587891 C-16.11713488 172.74322091 -14.51659193 173.72489913 -12.91699219 174.70800781 C-9.7051012 176.07841463 -8.5985333 175.77600913 -5.28027344 174.83300781 C-2.62052977 173.50285113 -2.62052977 173.50285113 0.06347656 171.82128906 C1.0625 171.22896484 2.06152344 170.63664063 3.09082031 170.02636719 C5.18195011 168.76933972 7.26789689 167.5036507 9.34863281 166.22949219 C10.34765625 165.64103516 11.34667969 165.05257812 12.37597656 164.44628906 C13.28154297 163.89755127 14.18710938 163.34881348 15.12011719 162.78344727 C17.71972656 161.83300781 17.71972656 161.83300781 20.29736328 162.51147461 C22.53173801 163.73044965 24.69346806 164.96798773 26.82128906 166.36425781 C27.55863281 166.84507812 28.29597656 167.32589844 29.05566406 167.82128906 C29.81105469 168.32015625 30.56644531 168.81902344 31.34472656 169.33300781 C32.10785156 169.831875 32.87097656 170.33074219 33.65722656 170.84472656 C36.68713885 172.82745864 39.70687112 174.82443752 42.71972656 176.83300781 C42.71972656 177.49300781 42.71972656 178.15300781 42.71972656 178.83300781 C42.05779297 179.21408691 41.39585937 179.59516602 40.71386719 179.98779297 C38.70602855 181.14406205 36.6984896 182.3008516 34.69116211 183.45800781 C32.36058163 184.80140715 30.02852024 186.14218936 27.69555664 187.48144531 C21.70381876 190.92589642 15.74013214 194.40639919 9.82519531 197.98144531 C8.74496094 198.62903809 7.66472656 199.27663086 6.55175781 199.94384766 C4.48598944 201.18491254 2.42710905 202.43752939 0.37597656 203.70263672 C-1.02587891 204.54060791 -1.02587891 204.54060791 -2.45605469 205.39550781 C-3.26985596 205.89179688 -4.08365723 206.38808594 -4.92211914 206.89941406 C-7.89321685 208.07567223 -9.2648529 207.81740013 -12.28027344 206.83300781 C-14.60668945 205.68823242 -14.60668945 205.68823242 -17.03417969 204.23535156 C-17.95642334 203.68951416 -18.87866699 203.14367676 -19.82885742 202.58129883 C-21.32074585 201.68495728 -21.32074585 201.68495728 -22.84277344 200.77050781 C-25.01125256 199.48531687 -27.180557 198.20151768 -29.35058594 196.91894531 C-30.4852832 196.24702148 -31.61998047 195.57509766 -32.7890625 194.8828125 C-37.97810063 191.82473355 -43.2224669 188.86328932 -48.46160889 185.89224243 C-58.44310938 180.22710867 -68.3653286 174.46987074 -78.21777344 168.58300781 C-79.2598999 167.96304932 -80.30202637 167.34309082 -81.37573242 166.7043457 C-82.34325439 166.12289795 -83.31077637 165.5414502 -84.30761719 164.94238281 C-85.1505835 164.43674805 -85.9935498 163.93111328 -86.86206055 163.41015625 C-93.84740218 158.85434535 -98.08626179 153.98631808 -100.28027344 145.83300781 C-100.6071388 142.68190489 -100.66562193 139.5407772 -100.71362305 136.37451172 C-100.74538383 134.97332848 -100.74538383 134.97332848 -100.77778625 133.5438385 C-100.98213274 123.82301931 -101.06838712 114.09948299 -101.14526367 104.37695312 C-101.18541466 99.7665933 -101.26209833 95.15904767 -101.37084961 90.54980469 C-101.50219528 84.97283081 -101.56956973 79.3984929 -101.59155464 73.82004929 C-101.6104939 71.69953277 -101.65170314 69.57909053 -101.7158947 67.45946121 C-102.1782502 51.34946449 -102.1782502 51.34946449 -99.0447216 47.19483566 C-95.56823912 44.10108395 -91.58886835 42.53068673 -87.28027344 40.83300781 C-85.04951956 39.63864804 -82.90109916 38.34620053 -80.72949219 37.04394531 C-78.4766469 35.76343109 -76.22270664 34.4848417 -73.96777344 33.20800781 C-71.49417706 31.80210462 -69.02182025 30.39403216 -66.54980469 28.98535156 C-65.62639282 28.45933098 -65.62639282 28.45933098 -64.68432617 27.92268372 C-59.79722572 25.13549406 -54.92945764 22.31623426 -50.07348633 19.47509766 C-48.13496445 18.34276604 -46.19274992 17.21673159 -44.24682617 16.09716797 C-39.48481029 13.34821676 -34.78498872 10.54182183 -30.1756897 7.54493713 C-27.87176189 6.05481965 -25.54543575 4.60200941 -23.21588135 3.15237427 C-21.57450115 2.11106632 -19.96547758 1.01929827 -18.35791016 -0.07348633 C-10.96093922 -4.64012211 -7.41827379 -4.54855407 0 0 Z " fill="#B54B9D" transform="translate(147.2802734375,66.1669921875)"/>
<path d="M0 0 C0.7460701 0.40756531 1.4921402 0.81513062 2.26081848 1.23504639 C3.24442856 1.77204163 4.22803864 2.30903687 5.24145508 2.86230469 C6.21440018 3.39362 7.18734528 3.9249353 8.18977356 4.47235107 C9.89472349 5.39916782 11.60250019 6.3208432 13.31535339 7.23297119 C15.13076008 8.19995111 16.90840844 9.21800736 18.6875 10.25 C19.30560547 10.56839844 19.92371094 10.88679687 20.56054688 11.21484375 C22.32421875 12.265625 22.32421875 12.265625 25 15 C25 18.3 25 21.6 25 25 C51.07 25 77.14 25 104 25 C104.12375 34.1575 104.2475 43.315 104.375 52.75 C104.45693604 57.0498291 104.45693604 57.0498291 104.54052734 61.43652344 C104.55807383 63.74412356 104.57335773 66.05174246 104.5859375 68.359375 C104.6166333 69.52871582 104.6473291 70.69805664 104.67895508 71.90283203 C104.68460254 80.90488797 102.63530813 89.22431264 96.17709351 95.87811279 C94.21405492 97.48390729 92.19232976 98.72114097 90 100 C88.83808875 100.72192782 87.67667014 101.44464883 86.515625 102.16796875 C85.26232802 102.92764148 84.00710566 103.68414661 82.75 104.4375 C82.14736328 104.80456055 81.54472656 105.17162109 80.92382812 105.54980469 C76.5476935 108.06961911 76.5476935 108.06961911 74.0793457 107.75585938 C71.66996727 106.88003037 69.71720722 105.73190193 67.55859375 104.34765625 C66.72779297 103.81849609 65.89699219 103.28933594 65.04101562 102.74414062 C64.18185547 102.18919922 63.32269531 101.63425781 62.4375 101.0625 C61.57447266 100.51142578 60.71144531 99.96035156 59.82226562 99.39257812 C56.53012561 97.28734795 53.25146498 95.16764332 50 93 C50 92.34 50 91.68 50 91 C50.68102783 90.61666504 51.36205566 90.23333008 52.0637207 89.83837891 C55.14732933 88.10179406 58.22992473 86.36341842 61.3125 84.625 C62.38435547 84.02171875 63.45621094 83.4184375 64.56054688 82.796875 C65.58857422 82.21679688 66.61660156 81.63671875 67.67578125 81.0390625 C68.62364502 80.50490723 69.57150879 79.97075195 70.5480957 79.42041016 C72.40444072 78.34501283 74.21496679 77.19002214 76 76 C76.33 67.75 76.66 59.5 77 51 C59.84 50.67 42.68 50.34 25 50 C25 58.25 25 66.5 25 75 C21.2822523 74.07056308 19.39677448 73.15018984 16.26953125 71.09375 C15.38458984 70.51496094 14.49964844 69.93617188 13.58789062 69.33984375 C12.21407227 68.42912109 12.21407227 68.42912109 10.8125 67.5 C9.4212793 66.58927734 9.4212793 66.58927734 8.00195312 65.66015625 C1.17628931 61.17628931 1.17628931 61.17628931 0 60 C-0.09386381 58.1281906 -0.11743804 56.2528194 -0.11352539 54.37866211 C-0.11344986 53.17749252 -0.11337433 51.97632294 -0.11329651 50.73875427 C-0.10813522 49.4314888 -0.10297394 48.12422333 -0.09765625 46.77734375 C-0.09579198 45.43355868 -0.09436812 44.08977293 -0.09336853 42.74598694 C-0.08954402 39.20317723 -0.07971432 35.6604083 -0.06866455 32.11761475 C-0.05844899 28.50484773 -0.0538706 24.89207416 -0.04882812 21.27929688 C-0.03809198 14.1861812 -0.02101636 7.09309326 0 0 Z " fill="#0C6F8A" transform="translate(125,130)"/>
<path d="M0 0 C1.39456867 0.00574201 2.78910972 0.01875397 4.18359375 0.03515625 C6.63796875 0.05578125 9.09234375 0.07640625 11.62109375 0.09765625 C11.62109375 6.03765625 11.62109375 11.97765625 11.62109375 18.09765625 C16.57109375 18.09765625 21.52109375 18.09765625 26.62109375 18.09765625 C26.60949219 16.88207031 26.59789062 15.66648438 26.5859375 14.4140625 C26.57656097 12.82942861 26.56746062 11.24479307 26.55859375 9.66015625 C26.55021484 8.85771484 26.54183594 8.05527344 26.53320312 7.22851562 C26.52457945 5.18470404 26.56881225 3.14081723 26.62109375 1.09765625 C26.95109375 0.76765625 27.28109375 0.43765625 27.62109375 0.09765625 C32.57109375 0.09765625 37.52109375 0.09765625 42.62109375 0.09765625 C42.62109375 17.25765625 42.62109375 34.41765625 42.62109375 52.09765625 C37.34109375 52.09765625 32.06109375 52.09765625 26.62109375 52.09765625 C26.62109375 45.49765625 26.62109375 38.89765625 26.62109375 32.09765625 C21.67109375 32.09765625 16.72109375 32.09765625 11.62109375 32.09765625 C11.62109375 38.69765625 11.62109375 45.29765625 11.62109375 52.09765625 C6.34109375 52.09765625 1.06109375 52.09765625 -4.37890625 52.09765625 C-4.40354738 44.85278576 -4.42173805 37.60793943 -4.43383789 30.36303711 C-4.43887981 27.89623592 -4.44571316 25.42943773 -4.4543457 22.96264648 C-4.4664175 19.42561096 -4.47213581 15.8886148 -4.4765625 12.3515625 C-4.48172379 11.24116104 -4.48688507 10.13075958 -4.49220276 8.98670959 C-4.49227829 7.96572678 -4.49235382 6.94474396 -4.49243164 5.89282227 C-4.49465225 4.98903336 -4.49687286 4.08524445 -4.49916077 3.15406799 C-4.29437682 -0.34783879 -3.62235191 0.10469225 0 0 Z " fill="#B852A1" transform="translate(255.37890625,129.90234375)"/>
<path d="M0 0 C5.61 0 11.22 0 17 0 C21.04956756 9.38798054 24.55491857 18.90190991 27.93139648 28.54858398 C28.82256085 31.09120507 29.72253137 33.63059968 30.62304688 36.16992188 C31.19323659 37.79148101 31.76291728 39.41321925 32.33203125 41.03515625 C32.73504204 42.16945824 32.73504204 42.16945824 33.14619446 43.32667542 C34.19517865 46.34221018 35 48.78276737 35 52 C29.72 52 24.44 52 19 52 C17 47 17 47 17 44 C11.39 44 5.78 44 0 44 C-0.33 46.31 -0.66 48.62 -1 51 C-2 52 -2 52 -5.59765625 52.09765625 C-7.08596867 52.0909822 -8.57426432 52.07902183 -10.0625 52.0625 C-11.20041992 52.05573242 -11.20041992 52.05573242 -12.36132812 52.04882812 C-14.24091871 52.0370068 -16.12046899 52.01907078 -18 52 C-16.02648119 45.19277046 -13.82940392 38.50258833 -11.42578125 31.8359375 C-11.09708542 30.91785309 -10.76838959 29.99976868 -10.42973328 29.05386353 C-9.39306034 26.16004 -8.35284607 23.26750476 -7.3125 20.375 C-6.60327969 18.39722 -5.89429318 16.41935615 -5.18554688 14.44140625 C-3.45972937 9.62663168 -1.73073761 4.81300805 0 0 Z M8 17 C7.3299166 19.12392506 6.66403203 21.24917524 6 23.375 C5.62875 24.55835938 5.2575 25.74171875 4.875 26.9609375 C3.90777394 29.79323439 3.90777394 29.79323439 4 32 C6.97 32 9.94 32 13 32 C12.55065113 29.87308203 12.09023527 27.74849961 11.625 25.625 C11.24214844 23.84996094 11.24214844 23.84996094 10.8515625 22.0390625 C10.24476035 18.91803033 10.24476035 18.91803033 8 17 Z " fill="#B852A1" transform="translate(320,130)"/>
<path d="M0 0 C-0.11458693 1.43836751 -0.24209116 2.87570966 -0.375 4.3125 C-0.44460938 5.11300781 -0.51421875 5.91351563 -0.5859375 6.73828125 C-1 9 -1 9 -3 12 C-3.66 12 -4.32 12 -5 12 C-5.226875 11.05125 -5.45375 10.1025 -5.6875 9.125 C-6.66282199 5.868459 -6.66282199 5.868459 -9.26171875 4.828125 C-17.845477 2.23218099 -26.12174917 4.13881771 -34 8 C-45.97038119 15.11070095 -53.16378172 26.81959865 -57 40 C-57.34409983 42.40822492 -57.34409983 42.40822492 -57.3125 44.6875 C-57.32925781 45.43386719 -57.34601563 46.18023437 -57.36328125 46.94921875 C-56.90150193 49.5560375 -56.07603065 50.4004354 -54 52 C-46.19122286 54.27756 -38.48288585 51.46627632 -31.4375 47.875 C-22.659664 42.61145023 -16.39196064 36.22311735 -12 27 C-16.29 27.66 -20.58 28.32 -25 29 C-25 28.01 -25 27.02 -25 26 C-21.23124981 24.82652898 -17.45967916 23.66239667 -13.6875 22.5 C-12.61564453 22.16613281 -11.54378906 21.83226562 -10.43945312 21.48828125 C-9.41142578 21.17246094 -8.38339844 20.85664063 -7.32421875 20.53125 C-5.9024231 20.09135742 -5.9024231 20.09135742 -4.4519043 19.64257812 C-2 19 -2 19 1 19 C1 19.99 1 20.98 1 22 C0.39260986 22.60142822 -0.21478027 23.20285645 -0.84057617 23.82250977 C-3.35826203 26.36125936 -4.27076209 28.51315039 -5.55078125 31.83984375 C-5.9984082 32.97953613 -6.44603516 34.11922852 -6.90722656 35.29345703 C-7.3709668 36.49599121 -7.83470703 37.69852539 -8.3125 38.9375 C-21.9326662 73.24097764 -21.9326662 73.24097764 -37 82 C-46.2941392 85.81240176 -54.32808257 87.46479251 -63.9140625 83.98046875 C-67.91775203 82.09858472 -70.33032962 79.63232155 -72 75.5625 C-72 72.00466228 -70.9131909 69.96874449 -69 67 C-66.00989454 65.05770928 -63.94784349 64.77766294 -60.4375 65.1875 C-59.67308594 65.26355469 -58.90867187 65.33960938 -58.12109375 65.41796875 C-55.60918423 66.10724042 -54.56514022 66.93686062 -53 69 C-53.3125 71.1875 -53.3125 71.1875 -54 73 C-55.98 73.495 -55.98 73.495 -58 74 C-58.66 73.01 -59.32 72.02 -60 71 C-62.475 71.495 -62.475 71.495 -65 72 C-65.86358623 73.78141747 -65.86358623 73.78141747 -66 76 C-63.78132865 78.77333918 -62.39379675 79.86873442 -59 81 C-49.81407155 82.011447 -43.03776718 79.66771375 -35.875 73.9375 C-26.94730076 65.55783774 -22.57763476 54.08928543 -18 43 C-18.43828125 43.36351562 -18.8765625 43.72703125 -19.328125 44.1015625 C-30.44293876 52.9120856 -41.98775455 58.10890195 -56.25 56.6171875 C-60.37540565 55.69131521 -62.18968661 54.11413106 -65 51 C-67.42374784 46.15250432 -66.55728445 39.96923833 -65.12890625 34.921875 C-62.44828454 28.06651456 -58.97371106 22.41441963 -54 17 C-53.45085937 16.39671875 -52.90171875 15.7934375 -52.3359375 15.171875 C-41.17212172 4.25395825 -15.32835138 -7.66417569 0 0 Z " fill="#247D95" transform="translate(493,128)"/>
<path d="M0 0 C1.27875 0.00257813 2.5575 0.00515625 3.875 0.0078125 C5.15375 0.00523437 6.4325 0.00265625 7.75 0 C10.875 0.1328125 10.875 0.1328125 11.875 1.1328125 C12.03510481 3.86982428 12.13446828 6.5844884 12.19140625 9.32421875 C12.21218735 10.14405746 12.23296844 10.96389618 12.25437927 11.80857849 C12.31996494 14.43740151 12.37880126 17.06632754 12.4375 19.6953125 C12.48067667 21.47331811 12.52429067 23.25131315 12.56835938 25.02929688 C12.67648171 29.39703122 12.77548728 33.76483941 12.875 38.1328125 C20.135 38.4628125 27.395 38.7928125 34.875 39.1328125 C34.875 43.4228125 34.875 47.7128125 34.875 52.1328125 C22.005 52.1328125 9.135 52.1328125 -4.125 52.1328125 C-4.14790278 44.88790036 -4.16783177 37.64311281 -4.17993164 30.39819336 C-4.18497356 27.93139217 -4.19180691 25.46459398 -4.20043945 22.99780273 C-4.21251125 19.46076721 -4.21822956 15.92377105 -4.22265625 12.38671875 C-4.22781754 11.27631729 -4.23297882 10.16591583 -4.23829651 9.02186584 C-4.23837204 8.00088303 -4.23844757 6.97990021 -4.23852539 5.92797852 C-4.240746 5.02418961 -4.24296661 4.1204007 -4.24525452 3.18922424 C-4.04767401 -0.18950013 -3.46399052 0.1472196 0 0 Z " fill="#B953A1" transform="translate(389.125,129.8671875)"/>
<path d="M0 0 C4.95 0 9.9 0 15 0 C16.61176306 1.61176306 16.12733842 3.35151444 16.12939453 5.57983398 C16.13254669 6.55431992 16.13569885 7.52880585 16.13894653 8.53282166 C16.1369223 9.59320145 16.13489807 10.65358124 16.1328125 11.74609375 C16.13424759 13.36826561 16.13424759 13.36826561 16.13571167 15.02320862 C16.13639371 17.31568459 16.13453777 19.60816248 16.13037109 21.90063477 C16.12502836 25.41882655 16.13031264 28.93689037 16.13671875 32.45507812 C16.13605787 34.67708362 16.13477651 36.89908903 16.1328125 39.12109375 C16.13483673 40.17944931 16.13686096 41.23780487 16.13894653 42.32823181 C16.13579437 43.3058699 16.13264221 44.283508 16.12939453 45.29077148 C16.12859894 46.15379379 16.12780334 47.0168161 16.12698364 47.9059906 C16 50 16 50 15 52 C10.05 52 5.1 52 0 52 C0 34.84 0 17.68 0 0 Z " fill="#B953A2" transform="translate(360,130)"/>
<path d="M0 0 C0.93328125 -0.00773438 1.8665625 -0.01546875 2.828125 -0.0234375 C10.63129879 -0.00164093 18.07116783 0.70179905 24.9375 4.6875 C25.66839844 5.09871094 26.39929688 5.50992188 27.15234375 5.93359375 C29 7.25 29 7.25 31 10.25 C31.56417084 14.52157925 31.33082999 16.66819554 29.1875 20.4375 C24.40235309 25.58015788 15.41208975 27.93341597 8.53320312 28.42700195 C-18.56483796 29.03040936 -18.56483796 29.03040936 -28.6875 21.9375 C-31.60068358 18.55190827 -32.15632938 16.70538743 -32 12.25 C-29.83094772 7.44036233 -27.06314021 5.34292498 -22.48828125 3.109375 C-15.00721585 0.52564755 -7.8786754 -0.06529289 0 0 Z M-22.1875 8.6875 C-24.44308854 11.70599646 -24.44308854 11.70599646 -25 15.25 C-23.93255475 18.29984356 -22.75302893 19.82295146 -19.93359375 21.421875 C-8.96224664 26.41049411 4.58233086 27.37345236 16.04296875 23.15625 C18.91719728 21.82526992 20.91859564 20.66711474 23 18.25 C24.41349769 14.85581779 24.41349769 14.85581779 24 11.25 C18.32530815 5.16997302 11.94415581 3.56125436 3.7734375 3.046875 C-10.11169133 2.7268656 -10.11169133 2.7268656 -22.1875 8.6875 Z " fill="#4A96A8" transform="translate(558,154.75)"/>
<path d="M0 0 C-0.11458693 1.43836751 -0.24209116 2.87570966 -0.375 4.3125 C-0.44460938 5.11300781 -0.51421875 5.91351563 -0.5859375 6.73828125 C-1 9 -1 9 -3 12 C-3.66 12 -4.32 12 -5 12 C-5.3403125 10.576875 -5.3403125 10.576875 -5.6875 9.125 C-6.66282199 5.868459 -6.66282199 5.868459 -9.26171875 4.828125 C-17.845477 2.23218099 -26.12174917 4.13881771 -34 8 C-41.87816462 12.67982362 -48.4052813 19.54183835 -52 28 C-52.66 26.68 -53.32 25.36 -54 24 C-53.34 24 -52.68 24 -52 24 C-52.66 23.01 -53.32 22.02 -54 21 C-54.99 21.33 -55.98 21.66 -57 22 C-52.69112539 12.16357917 -41.66097542 6.84721723 -32.23388672 2.85009766 C-22.8189313 -0.73273019 -9.57840167 -4.78920083 0 0 Z " fill="#4B96A9" transform="translate(493,128)"/>
<path d="M0 0 C2.31 0 4.62 0 7 0 C7.33 1.32 7.66 2.64 8 4 C9.0725 3.34 10.145 2.68 11.25 2 C16.68068634 -0.7739477 22.04456946 -0.35732583 28 0 C28 0.99 28 1.98 28 3 C27.19175781 3.10957031 26.38351562 3.21914062 25.55078125 3.33203125 C23.94783203 3.56986328 23.94783203 3.56986328 22.3125 3.8125 C21.25675781 3.96332031 20.20101562 4.11414063 19.11328125 4.26953125 C15.89035664 5.02572561 13.76736092 6.23102148 11 8 C10.34 8 9.68 8 9 8 C8.97494385 8.57032959 8.9498877 9.14065918 8.92407227 9.72827148 C8.80843451 12.29826157 8.68556376 14.86785527 8.5625 17.4375 C8.52318359 18.33533203 8.48386719 19.23316406 8.44335938 20.15820312 C8.40146484 21.01220703 8.35957031 21.86621094 8.31640625 22.74609375 C8.26141968 23.93223267 8.26141968 23.93223267 8.20532227 25.14233398 C8 27 8 27 7 28 C5.02 28 3.04 28 1 28 C0.67 18.76 0.34 9.52 0 0 Z " fill="#4D98AC" transform="translate(493,155)"/>
<path d="M0 0 C0.76441406 0.07605469 1.52882813 0.15210938 2.31640625 0.23046875 C4.82831577 0.91974042 5.87235978 1.74936062 7.4375 3.8125 C7.125 6 7.125 6 6.4375 7.8125 C5.1175 8.1425 3.7975 8.4725 2.4375 8.8125 C1.7775 7.8225 1.1175 6.8325 0.4375 5.8125 C-1.2125 6.1425 -2.8625 6.4725 -4.5625 6.8125 C-5.42608623 8.59391747 -5.42608623 8.59391747 -5.5625 10.8125 C-3.34382865 13.58583918 -1.95629675 14.68123442 1.4375 15.8125 C7.99611546 16.53465802 12.80054559 15.67888475 18.625 12.58984375 C19.223125 12.33332031 19.82125 12.07679688 20.4375 11.8125 C21.0975 12.1425 21.7575 12.4725 22.4375 12.8125 C22.1075 14.4625 21.7775 16.1125 21.4375 17.8125 C11.73607121 20.75976951 3.91415077 22.26688079 -5.5625 17.8125 C-8.51572747 15.47452825 -10.1379283 13.84739353 -11.5625 10.375 C-11.5625 6.81716228 -10.4756909 4.78124449 -8.5625 1.8125 C-5.57239454 -0.12979072 -3.51034349 -0.40983706 0 0 Z " fill="#368A9F" transform="translate(432.5625,193.1875)"/>
<path d="M0 0 C0.99 0 1.98 0 3 0 C2.64516529 6.97841605 0.77464873 12.37398828 -1.85546875 18.82421875 C-3.34662592 22.9617982 -3.77751139 26.62439057 -4 31 C-5.98 31 -7.96 31 -10 31 C-12.46173175 26.0765365 -11.56719154 19.82421063 -9.98828125 14.74609375 C-6.20383594 5.48386273 -6.20383594 5.48386273 -3 2 C-2.01 2 -1.02 2 0 2 C0 1.34 0 0.68 0 0 Z " fill="#1F7A93" transform="translate(438,148)"/>
<path d="M0 0 C4.62 0 9.24 0 14 0 C14 3.3 14 6.6 14 10 C10.71303767 10.79953138 9.28976808 11.09658936 6 10 C6 10.66 6 11.32 6 12 C8.64 12 11.28 12 14 12 C14.5625 13.9375 14.5625 13.9375 15 16 C14 17 14 17 11.09375 17.1328125 C9.9078125 17.13023437 8.721875 17.12765625 7.5 17.125 C6.3140625 17.12757813 5.128125 17.13015625 3.90625 17.1328125 C1 17 1 17 0 16 C-0.07319621 13.30345146 -0.09242537 10.63308542 -0.0625 7.9375 C-0.05798828 7.17888672 -0.05347656 6.42027344 -0.04882812 5.63867188 C-0.0370068 3.75908129 -0.01907078 1.87953101 0 0 Z " fill="#4598AC" transform="translate(518,196)"/>
<path d="M0 0 C1.2065625 0.0309375 1.2065625 0.0309375 2.4375 0.0625 C2.7675 1.0525 3.0975 2.0425 3.4375 3.0625 C3.1075 3.7225 2.7775 4.3825 2.4375 5.0625 C3.7575 5.0625 5.0775 5.0625 6.4375 5.0625 C6.7675 3.4125 7.0975 1.7625 7.4375 0.0625 C9.0875 0.0625 10.7375 0.0625 12.4375 0.0625 C12.4375 5.6725 12.4375 11.2825 12.4375 17.0625 C10.7875 17.0625 9.1375 17.0625 7.4375 17.0625 C6.4375 16.0625 6.4375 16.0625 6.375 13.5 C6.395625 12.695625 6.41625 11.89125 6.4375 11.0625 C5.4475 11.3925 4.4575 11.7225 3.4375 12.0625 C3.1075 13.7125 2.7775 15.3625 2.4375 17.0625 C0.7875 17.0625 -0.8625 17.0625 -2.5625 17.0625 C-4.05591703 14.07566593 -3.69425178 11.31850226 -3.6875 8 C-3.69007813 6.73027344 -3.69265625 5.46054688 -3.6953125 4.15234375 C-3.5205208 0.08586636 -3.5205208 0.08586636 0 0 Z " fill="#378AA0" transform="translate(574.5625,195.9375)"/>
<path d="M0 0 C4.24945882 -0.17683407 8.49795193 -0.28169487 12.75 -0.375 C13.93722656 -0.42527344 15.12445312 -0.47554687 16.34765625 -0.52734375 C25.10570373 -0.6709183 31.71178164 0.9964463 39 6 C41.51250583 9.76875875 41.53016086 11.53150134 41 16 C39.54006686 18.32978877 37.93880985 20.0127199 36 22 C34.35 21.67 32.7 21.34 31 21 C31.33 20.113125 31.66 19.22625 32 18.3125 C33.26818983 14.19226578 33.26818983 14.19226578 33 10 C29.99070329 6.99070329 27.00816104 5.33605368 23 4 C21.44732422 3.48179687 21.44732422 3.48179687 19.86328125 2.953125 C15.60826794 1.90335428 11.91045962 1.77157187 7.5625 1.875 C6.46518555 1.88853516 6.46518555 1.88853516 5.34570312 1.90234375 C3.56365702 1.92563847 1.78178241 1.9614981 0 2 C0 1.34 0 0.68 0 0 Z " fill="#297F94" transform="translate(548,156)"/>
<path d="M0 0 C2.125 0.375 2.125 0.375 4 1 C4 1.66 4 2.32 4 3 C57.79 3 111.58 3 167 3 C167 3.33 167 3.66 167 4 C113.21 4 59.42 4 4 4 C3.67 4.99 3.34 5.98 3 7 C1.68 6.67 0.36 6.34 -1 6 C-1.625 4.125 -1.625 4.125 -2 2 C-1.34 1.34 -0.68 0.68 0 0 Z " fill="#4E4E4D" transform="translate(247,187)"/>
<path d="M0 0 C0.66 0.99 1.32 1.98 2 3 C-0.92802696 10.6028882 -11.61493929 14.663839 -18.609375 17.99609375 C-26.22282074 21.19324335 -33.89568558 21.88472428 -42 20 C-44.33925693 18.51847061 -45.36085182 17.28309925 -47 15 C-45.68 14.67 -44.36 14.34 -43 14 C-42.67 11.36 -42.34 8.72 -42 6 C-41.67 6 -41.34 6 -41 6 C-40.91363281 6.62648437 -40.82726562 7.25296875 -40.73828125 7.8984375 C-40.02879574 12.9139505 -40.02879574 12.9139505 -36.9375 16.625 C-26.21577163 17.99373128 -16.69556096 13.61285061 -8.05078125 7.59375 C-5.08302826 5.28738196 -2.55627591 2.75291251 0 0 Z " fill="#60A5B4" transform="translate(476,164)"/>
<path d="M0 0 C2.5 1.875 2.5 1.875 4 4 C4 4.66 4 5.32 4 6 C-0.05431692 7.15837626 -2.21812119 6.83691257 -6 5 C-5.67 6.98 -5.34 8.96 -5 11 C-4.01 11.33 -3.02 11.66 -2 12 C-1.67 11.01 -1.34 10.02 -1 9 C1.475 9.99 1.475 9.99 4 11 C2.25 15.875 2.25 15.875 0 17 C-4.29322859 17.48602588 -6.32082639 17.46241608 -9.9375 15 C-12.79117716 10.84919686 -12.7099846 8.9698922 -12 4 C-9.18277109 -0.69538152 -5.05186173 -1.05592192 0 0 Z " fill="#0A6A84" transform="translate(556,196)"/>
<path d="M0 0 C1.39456452 0.00667256 2.78911118 0.01863093 4.18359375 0.03515625 C4.89451172 0.03966797 5.60542969 0.04417969 6.33789062 0.04882812 C8.09899388 0.06064761 9.86005411 0.07858362 11.62109375 0.09765625 C11.62109375 1.74765625 11.62109375 3.39765625 11.62109375 5.09765625 C9.97109375 5.09765625 8.32109375 5.09765625 6.62109375 5.09765625 C6.62109375 9.05765625 6.62109375 13.01765625 6.62109375 17.09765625 C4.97109375 17.09765625 3.32109375 17.09765625 1.62109375 17.09765625 C0.62109375 16.09765625 0.62109375 16.09765625 0.48828125 14.1015625 C0.49214844 12.89306641 0.49214844 12.89306641 0.49609375 11.66015625 C0.49351562 10.85707031 0.4909375 10.05398437 0.48828125 9.2265625 C0.62109375 7.09765625 0.62109375 7.09765625 1.62109375 5.09765625 C-0.02890625 5.09765625 -1.67890625 5.09765625 -3.37890625 5.09765625 C-3.94140625 3.16015625 -3.94140625 3.16015625 -4.37890625 1.09765625 C-3.37890625 0.09765625 -3.37890625 0.09765625 0 0 Z " fill="#509DB0" transform="translate(495.37890625,195.90234375)"/>
<path d="M0 0 C0.97646484 0.00322266 1.95292969 0.00644531 2.95898438 0.00976562 C3.96638672 0.01814453 4.97378906 0.02652344 6.01171875 0.03515625 C7.03845703 0.03966797 8.06519531 0.04417969 9.12304688 0.04882812 C11.64849757 0.06057441 14.1738278 0.0770006 16.69921875 0.09765625 C16.69921875 0.42765625 16.69921875 0.75765625 16.69921875 1.09765625 C9.76921875 1.09765625 2.83921875 1.09765625 -4.30078125 1.09765625 C-4.30078125 1.75765625 -4.30078125 2.41765625 -4.30078125 3.09765625 C-3.64078125 2.76765625 -2.98078125 2.43765625 -2.30078125 2.09765625 C0.07324376 2.02649243 2.44922552 2.0135654 4.82421875 2.03515625 C6.10554687 2.04417969 7.386875 2.05320313 8.70703125 2.0625 C10.18816406 2.07990234 10.18816406 2.07990234 11.69921875 2.09765625 C11.69921875 2.42765625 11.69921875 2.75765625 11.69921875 3.09765625 C9.79849609 3.24460938 9.79849609 3.24460938 7.859375 3.39453125 C-4.93501781 3.9769359 -4.93501781 3.9769359 -16.30078125 9.09765625 C-18.41573964 12.1492909 -18.41573964 12.1492909 -19.30078125 15.09765625 C-20.62078125 14.10765625 -21.94078125 13.11765625 -23.30078125 12.09765625 C-24.29078125 13.41765625 -25.28078125 14.73765625 -26.30078125 16.09765625 C-26.04729768 12.4643918 -25.54529978 10.42893942 -23.36328125 7.47265625 C-16.60039885 2.22797194 -8.49450783 -0.04967548 0 0 Z " fill="#4E9FAF" transform="translate(552.30078125,154.90234375)"/>
<path d="M0 0 C0 0.99 0 1.98 0 3 C-0.598125 3.556875 -1.19625 4.11375 -1.8125 4.6875 C-4.38790512 7.41007113 -5.13501419 9.75635186 -6.19140625 13.29296875 C-6.45824219 13.85628906 -6.72507812 14.41960937 -7 15 C-7.99 15.33 -8.98 15.66 -10 16 C-11.49821059 12.62902617 -12 10.79557881 -12 7 C-12.75925781 7.2165625 -13.51851563 7.433125 -14.30078125 7.65625 C-15.29464844 7.9346875 -16.28851563 8.213125 -17.3125 8.5 C-18.29863281 8.7784375 -19.28476562 9.056875 -20.30078125 9.34375 C-23 10 -23 10 -26 10 C-26 9.01 -26 8.02 -26 7 C-22.23124981 5.82652898 -18.45967916 4.66239667 -14.6875 3.5 C-13.61564453 3.16613281 -12.54378906 2.83226562 -11.43945312 2.48828125 C-10.41142578 2.17246094 -9.38339844 1.85664063 -8.32421875 1.53125 C-6.9024231 1.09135742 -6.9024231 1.09135742 -5.4519043 0.64257812 C-3 0 -3 0 0 0 Z " fill="#1C758E" transform="translate(494,147)"/>
<path d="M0 0 C2.125 0.9375 2.125 0.9375 4 2 C3.6875 3.9375 3.6875 3.9375 3 6 C2.01 6.33 1.02 6.66 0 7 C-0.99 6.505 -0.99 6.505 -2 6 C-2 5.34 -2 4.68 -2 4 C-36.65 4 -71.3 4 -107 4 C-107 3.67 -107 3.34 -107 3 C-72.35 3 -37.7 3 -2 3 C-2 2.34 -2 1.68 -2 1 C-1.34 0.67 -0.68 0.34 0 0 Z " fill="#4F5050" transform="translate(593,187)"/>
<path d="M0 0 C0.763125 0.639375 1.52625 1.27875 2.3125 1.9375 C7.15361566 5.65277481 12.10766021 5.66225145 18 5 C20.52363777 4.09271029 22.82008803 3.0329176 25.1875 1.77734375 C25.785625 1.52082031 26.38375 1.26429688 27 1 C27.66 1.33 28.32 1.66 29 2 C28.67 3.65 28.34 5.3 28 7 C18.26573224 9.9572459 10.5234345 11.39401707 1 7 C-1.5625 4.8125 -1.5625 4.8125 -3 3 C-2.34 3 -1.68 3 -1 3 C-0.67 2.01 -0.34 1.02 0 0 Z " fill="#4A98AA" transform="translate(426,204)"/>
<path d="M0 0 C0.99 0.66 1.98 1.32 3 2 C3 2.66 3 3.32 3 4 C3.66 4 4.32 4 5 4 C5.20625 4.598125 5.4125 5.19625 5.625 5.8125 C7.50926082 8.81018767 9.81132084 9.61361776 13 11 C13 11.66 13 12.32 13 13 C13.66 13 14.32 13 15 13 C15 13.66 15 14.32 15 15 C7.78842136 14.67948539 3.25844714 13.25844714 -2 8 C-2.25 5 -2.25 5 -2 2 C-1.34 1.34 -0.68 0.68 0 0 Z " fill="#4194AA" transform="translate(529,166)"/>
<path d="M0 0 C0.33 0 0.66 0 1 0 C1.08636719 0.62648437 1.17273438 1.25296875 1.26171875 1.8984375 C1.93463249 6.89770578 1.93463249 6.89770578 5.0625 10.5 C9.02999617 11.1753185 12.98940393 11.66796808 17 12 C17 12.66 17 13.32 17 14 C10.18295278 14.92731892 4.5166471 15.44374266 -2 13 C-4 10.875 -4 10.875 -5 9 C-3.68 8.67 -2.36 8.34 -1 8 C-0.67 5.36 -0.34 2.72 0 0 Z " fill="#5B9DAD" transform="translate(434,170)"/>
<path d="M0 0 C1.32 0 2.64 0 4 0 C4 4.95 4 9.9 4 15 C2.68 15 1.36 15 0 15 C-0.33 13.02 -0.66 11.04 -1 9 C-2.32 8.67 -3.64 8.34 -5 8 C-5 7.01 -5 6.02 -5 5 C-3.35 5 -1.7 5 0 5 C0 3.35 0 1.7 0 0 Z " fill="#086681" transform="translate(583,197)"/>
<path d="M0 0 C2.97 0.495 2.97 0.495 6 1 C6.48430493 8.26457399 6.48430493 8.26457399 4.3125 11.5625 C2 13 2 13 -3 12 C-2.01 8.04 -1.02 4.08 0 0 Z " fill="#207B91" transform="translate(582,165)"/>
<path d="M0 0 C0.66 0.99 1.32 1.98 2 3 C2.84111328 3.92425781 2.84111328 3.92425781 3.69921875 4.8671875 C5 7 5 7 4.70703125 9.5078125 C4.41183594 10.37148437 4.11664063 11.23515625 3.8125 12.125 C3.53019531 12.99382812 3.24789063 13.86265625 2.95703125 14.7578125 C2 17 2 17 0 19 C-3.83031301 7.76441516 -3.83031301 7.76441516 -1.5 2.8125 C-1.005 1.884375 -0.51 0.95625 0 0 Z M-3 15 C-1 16 -1 16 -1 16 Z " fill="#2D869A" transform="translate(481,155)"/>
<path d="M0 0 C0.33 0 0.66 0 1 0 C1.33 1.65 1.66 3.3 2 5 C2.99 5.33 3.98 5.66 5 6 C5.33 5.01 5.66 4.02 6 3 C8.475 3.99 8.475 3.99 11 5 C9.25 9.875 9.25 9.875 7 11 C0.60110803 11.46537396 0.60110803 11.46537396 -1.9375 9.5 C-2.288125 9.005 -2.63875 8.51 -3 8 C-2.01 8 -1.02 8 0 8 C0 5.36 0 2.72 0 0 Z " fill="#4094A6" transform="translate(549,202)"/>
<path d="M0 0 C0.97646484 0.00322266 1.95292969 0.00644531 2.95898438 0.00976562 C3.96638672 0.01814453 4.97378906 0.02652344 6.01171875 0.03515625 C7.03845703 0.03966797 8.06519531 0.04417969 9.12304688 0.04882812 C11.64849757 0.06057441 14.1738278 0.0770006 16.69921875 0.09765625 C16.69921875 0.42765625 16.69921875 0.75765625 16.69921875 1.09765625 C9.76921875 1.09765625 2.83921875 1.09765625 -4.30078125 1.09765625 C-4.30078125 1.75765625 -4.30078125 2.41765625 -4.30078125 3.09765625 C-3.64078125 2.76765625 -2.98078125 2.43765625 -2.30078125 2.09765625 C0.07324376 2.02649243 2.44922552 2.0135654 4.82421875 2.03515625 C6.10554687 2.04417969 7.386875 2.05320313 8.70703125 2.0625 C9.69445312 2.07410156 10.681875 2.08570313 11.69921875 2.09765625 C11.69921875 2.42765625 11.69921875 2.75765625 11.69921875 3.09765625 C8.65794058 3.4349069 5.61627684 3.76757957 2.57421875 4.09765625 C1.71828125 4.19304687 0.86234375 4.2884375 -0.01953125 4.38671875 C-4.47100599 4.86610834 -8.8152005 5.21531083 -13.30078125 5.09765625 C-13.30078125 4.43765625 -13.30078125 3.77765625 -13.30078125 3.09765625 C-12.31078125 3.09765625 -11.32078125 3.09765625 -10.30078125 3.09765625 C-10.30078125 2.43765625 -10.30078125 1.77765625 -10.30078125 1.09765625 C-6.80085429 0.30058857 -3.58655815 -0.02097402 0 0 Z " fill="#5EA6B7" transform="translate(552.30078125,154.90234375)"/>
<path d="M0 0 C2.97 0 5.94 0 9 0 C8.25 8.625 8.25 8.625 6 12 C5.34 12 4.68 12 4 12 C4 9.36 4 6.72 4 4 C1.525 3.01 1.525 3.01 -1 2 C-0.67 1.34 -0.34 0.68 0 0 Z " fill="#599FB0" transform="translate(484,128)"/>
<path d="M0 0 C1.06863281 0.01804688 2.13726563 0.03609375 3.23828125 0.0546875 C4.04652344 0.07789063 4.85476563 0.10109375 5.6875 0.125 C5.6875 1.115 5.6875 2.105 5.6875 3.125 C4.45773437 3.32416016 4.45773437 3.32416016 3.203125 3.52734375 C1.58664062 3.79224609 1.58664062 3.79224609 -0.0625 4.0625 C-1.66351562 4.32353516 -1.66351562 4.32353516 -3.296875 4.58984375 C-5.67597593 5.01204171 -7.98165211 5.49702884 -10.3125 6.125 C-9.9825 5.135 -9.6525 4.145 -9.3125 3.125 C-9.9725 2.795 -10.6325 2.465 -11.3125 2.125 C-7.38392246 0.27368517 -4.32474888 -0.09504943 0 0 Z " fill="#559BAC" transform="translate(515.3125,154.875)"/>
<path d="M0 0 C0.5534764 2.07553648 1 3.84365964 1 6 C1.99 6 2.98 6 4 6 C2.54955729 10.10958767 0.48889248 13.43258745 -2 17 C-2.68707555 14.50935112 -3 12.62113708 -3 10 C-3.33 9.34 -3.66 8.68 -4 8 C-3.22265625 6.0546875 -3.22265625 6.0546875 -2.0625 3.875 C-1.49208984 2.78832031 -1.49208984 2.78832031 -0.91015625 1.6796875 C-0.60980469 1.12539062 -0.30945313 0.57109375 0 0 Z " fill="#4093A9" transform="translate(471,181)"/>
<path d="M0 0 C0.598125 0.61875 1.19625 1.2375 1.8125 1.875 C6.27101819 4.84734546 10.75716052 5.30217898 16 6 C16 6.33 16 6.66 16 7 C14.39125 7.2165625 14.39125 7.2165625 12.75 7.4375 C9.25294754 7.8431997 9.25294754 7.8431997 7.03125 8.6875 C4.19753816 9.12345567 3.07893943 8.15394195 0.75 6.5625 C0.04359375 6.08941406 -0.6628125 5.61632812 -1.390625 5.12890625 C-1.92171875 4.75636719 -2.4528125 4.38382813 -3 4 C-2.34 3.67 -1.68 3.34 -1 3 C-0.67 2.01 -0.34 1.02 0 0 Z " fill="#5EA7B8" transform="translate(426,204)"/>
<path d="M0 0 C2.0625 1.75 2.0625 1.75 4 4 C3.625 6.125 3.625 6.125 3 8 C3.66 8.66 4.32 9.32 5 10 C2.625 10.125 2.625 10.125 0 10 C-2 8 -2 8 -2.25 5 C-2 2 -2 2 0 0 Z " fill="#12758F" transform="translate(529,166)"/>
<path d="M0 0 C2.5 0.125 2.5 0.125 3.5 1.125 C3.54080783 3.12458364 3.54254356 5.12545254 3.5 7.125 C4.82 7.455 6.14 7.785 7.5 8.125 C5.83388095 8.167721 4.16617115 8.16563832 2.5 8.125 C1.5 7.125 1.5 7.125 1.4375 4.5625 C1.458125 3.758125 1.47875 2.95375 1.5 2.125 C0.51 2.455 -0.48 2.785 -1.5 3.125 C-1.83 4.775 -2.16 6.425 -2.5 8.125 C-4.15 8.125 -5.8 8.125 -7.5 8.125 C-7.83 7.465 -8.16 6.805 -8.5 6.125 C-6.025 6.62 -6.025 6.62 -3.5 7.125 C-3.520625 6.155625 -3.54125 5.18625 -3.5625 4.1875 C-3.48059244 0.17402962 -3.48059244 0.17402962 0 0 Z " fill="#8BC0CB" transform="translate(579.5,204.875)"/>
<path d="M0 0 C0.33 0.66 0.66 1.32 1 2 C0.67 2.66 0.34 3.32 0 4 C1.65 3.67 3.3 3.34 5 3 C3.33333333 6.33333333 1.66666667 9.66666667 0 13 C-0.66 11.68 -1.32 10.36 -2 9 C-1.34 9 -0.68 9 0 9 C-0.66 8.01 -1.32 7.02 -2 6 C-2.99 6.33 -3.98 6.66 -5 7 C-3.70700306 4.11562221 -2.34058637 2.12780579 0 0 Z " fill="#4A9BAE" transform="translate(441,143)"/>
<path d="M0 0 C0 0.33 0 0.66 0 1 C-2.31 1.33 -4.62 1.66 -7 2 C-5.68 2.99 -4.36 3.98 -3 5 C-3.33 5.99 -3.66 6.98 -4 8 C-5.98 7.01 -7.96 6.02 -10 5 C-9.67 3.68 -9.34 2.36 -9 1 C-11.31 1 -13.62 1 -16 1 C-16 0.67 -16 0.34 -16 0 C-10.49983036 -1.30267176 -5.52967941 -0.71033431 0 0 Z " fill="#64ACBD" transform="translate(491,127)"/>
<path d="M0 0 C0.33 0 0.66 0 1 0 C1 5.28 1 10.56 1 16 C-0.65 16 -2.3 16 -4 16 C-4 14.35 -4 12.7 -4 11 C-2.68 10.67 -1.36 10.34 0 10 C0 6.7 0 3.4 0 0 Z " fill="#126076" transform="translate(499,166)"/>
<path d="M0 0 C-0.33 0.66 -0.66 1.32 -1 2 C-2.94660131 2.29693918 -4.89629767 2.58356787 -6.85546875 2.78125 C-9.59344008 3.06053305 -12.28991229 3.52573465 -15 4 C-15 3.01 -15 2.02 -15 1 C-9.675665 -1.32086397 -5.56157448 -0.91457003 0 0 Z " fill="#69A8B9" transform="translate(483,153)"/>
<path d="M0 0 C2.0625 0.4375 2.0625 0.4375 4 1 C4 2.65 4 4.3 4 6 C2.125 6.625 2.125 6.625 0 7 C-0.66 6.34 -1.32 5.68 -2 5 C-1.46428571 1.46428571 -1.46428571 1.46428571 0 0 Z " fill="#59585A" transform="translate(247,187)"/>
<path d="M0 0 C0.33 0 0.66 0 1 0 C1.33 3.96 1.66 7.92 2 12 C0.68 12.33 -0.64 12.66 -2 13 C-2.99 11.68 -3.98 10.36 -5 9 C-3.68 8.67 -2.36 8.34 -1 8 C-0.67 5.36 -0.34 2.72 0 0 Z " fill="#4091AA" transform="translate(434,170)"/>
<path d="M0 0 C0 0.66 0 1.32 0 2 C-0.99 2 -1.98 2 -3 2 C-3 2.66 -3 3.32 -3 4 C-6.375 4.1875 -6.375 4.1875 -10 4 C-10.66 3.01 -11.32 2.02 -12 1 C-7.915021 0.45533613 -4.1274515 0 0 0 Z " fill="#398D9E" transform="translate(446,210)"/>
<path d="M0 0 C0.66 0.33 1.32 0.66 2 1 C1.61402985 3.79828356 1.19863427 4.8205884 -0.9375 6.75 C-3 8 -3 8 -5 8 C-5.33 7.01 -5.66 6.02 -6 5 C-4.02 3.35 -2.04 1.7 0 0 Z " fill="#207C92" transform="translate(459,202)"/>
<path d="M0 0 C0.33 0 0.66 0 1 0 C1 3.63 1 7.26 1 11 C-0.32 10.67 -1.64 10.34 -3 10 C-2.25 2.25 -2.25 2.25 0 0 Z " fill="#06647D" transform="translate(500,201)"/>
<path d="M0 0 C0 0.66 0 1.32 0 2 C-0.99 2.33 -1.98 2.66 -3 3 C-4.11785113 5.11785113 -4.11785113 5.11785113 -5 8 C-6.32 8 -7.64 8 -9 8 C-8.3125 5.125 -8.3125 5.125 -7 2 C-4.50858315 0.62972073 -2.83598698 0 0 0 Z " fill="#1E7891" transform="translate(450,139)"/>
<path d="M0 0 C0 0.66 0 1.32 0 2 C-0.99 2 -1.98 2 -3 2 C-3 2.66 -3 3.32 -3 4 C-3.99 4.66 -4.98 5.32 -6 6 C-6 6.99 -6 7.98 -6 9 C-8.475 8.01 -8.475 8.01 -11 7 C-11 6.34 -11 5.68 -11 5 C-9.54462432 4.16151196 -8.08559627 3.32936066 -6.625 2.5 C-5.81289062 2.0359375 -5.00078125 1.571875 -4.1640625 1.09375 C-2 0 -2 0 0 0 Z " fill="#5AA3B5" transform="translate(186,216)"/>
<path d="M0 0 C2.64 0 5.28 0 8 0 C8.5625 1.9375 8.5625 1.9375 9 4 C8 5 8 5 5.05859375 5.09765625 C3.26615234 5.08025391 3.26615234 5.08025391 1.4375 5.0625 C-0.35880859 5.04896484 -0.35880859 5.04896484 -2.19140625 5.03515625 C-3.11824219 5.02355469 -4.04507813 5.01195312 -5 5 C-5 4.67 -5 4.34 -5 4 C0.94 3.505 0.94 3.505 7 3 C7 2.34 7 1.68 7 1 C4.69 1 2.38 1 0 1 C0 0.67 0 0.34 0 0 Z " fill="#8EC3D0" transform="translate(524,208)"/>
<path d="M0 0 C0.33 0.66 0.66 1.32 1 2 C-3.77573323 4.61895048 -7.84434881 3.83119431 -13 3 C-13 2.67 -13 2.34 -13 2 C-11.21089097 1.47044766 -9.41860852 0.9516063 -7.625 0.4375 C-6.62726563 0.14746094 -5.62953125 -0.14257812 -4.6015625 -0.44140625 C-2 -1 -2 -1 0 0 Z " fill="#76B5C5" transform="translate(459,179)"/>
<path d="M0 0 C0 0.99 0 1.98 0 3 C-2.5 5.1875 -2.5 5.1875 -5 7 C-5 5.68 -5 4.36 -5 3 C-7.31 3.33 -9.62 3.66 -12 4 C-8.14070855 1.42713903 -4.66785662 0 0 0 Z " fill="#70B4C3" transform="translate(494,147)"/>
<path d="M0 0 C0.33 0.99 0.66 1.98 1 3 C1.66 3 2.32 3 3 3 C3.33 2.01 3.66 1.02 4 0 C4.33 1.32 4.66 2.64 5 4 C3.68 4.99 2.36 5.98 1 7 C0.34 6.01 -0.32 5.02 -1 4 C-2.98 4.99 -2.98 4.99 -5 6 C-3.35 4.02 -1.7 2.04 0 0 Z " fill="#4C9DB0" transform="translate(460,199)"/>
<path d="M0 0 C1.98 0 3.96 0 6 0 C6 0.66 6 1.32 6 2 C6.66 2 7.32 2 8 2 C8 2.66 8 3.32 8 4 C5.03 3.67 2.06 3.34 -1 3 C-0.67 2.01 -0.34 1.02 0 0 Z " fill="#308399" transform="translate(536,177)"/>
<path d="M0 0 C0.99 0 1.98 0 3 0 C3 2.97 3 5.94 3 9 C2.01 8.67 1.02 8.34 0 8 C0 5.36 0 2.72 0 0 Z " fill="#136E86" transform="translate(423,199)"/>
<path d="M0 0 C0 0.33 0 0.66 0 1 C-1.11375 1.103125 -2.2275 1.20625 -3.375 1.3125 C-4.57125 1.539375 -5.7675 1.76625 -7 2 C-7.99 3.485 -7.99 3.485 -9 5 C-9.66 5 -10.32 5 -11 5 C-11 7.31 -11 9.62 -11 12 C-11.33 12 -11.66 12 -12 12 C-12.48 4.8 -12.48 4.8 -10.5 1.5 C-6.85991277 -0.68405234 -4.20345267 -0.28023018 0 0 Z " fill="#66AEBF" transform="translate(556,196)"/>
<path d="M0 0 C1.32 0 2.64 0 4 0 C3.34 1.65 2.68 3.3 2 5 C1.34 5 0.68 5 0 5 C-0.33 5.66 -0.66 6.32 -1 7 C-1.66 5.68 -2.32 4.36 -3 3 C-2.34 3 -1.68 3 -1 3 C-0.67 2.01 -0.34 1.02 0 0 Z " fill="#3C90A4" transform="translate(502,158)"/>
<path d="M0 0 C1.134375 0.020625 2.26875 0.04125 3.4375 0.0625 C3.4375 0.7225 3.4375 1.3825 3.4375 2.0625 C0.55538698 3.02320434 -1.26100044 3.16831883 -4.25 3.125 C-5.46236328 3.11146484 -5.46236328 3.11146484 -6.69921875 3.09765625 C-7.62154297 3.08025391 -7.62154297 3.08025391 -8.5625 3.0625 C-7.923125 2.753125 -7.28375 2.44375 -6.625 2.125 C-2.58814103 0.04540598 -2.58814103 0.04540598 0 0 Z " fill="#09647F" transform="translate(527.5625,208.9375)"/>
<path d="M0 0 C1.98 0.66 3.96 1.32 6 2 C5.01 3.32 4.02 4.64 3 6 C3 5.01 3 4.02 3 3 C2.01 3 1.02 3 0 3 C0 5.31 0 7.62 0 10 C-0.66 9.01 -1.32 8.02 -2 7 C-1.125 3.3125 -1.125 3.3125 0 0 Z " fill="#61A8B4" transform="translate(423,196)"/>
<path d="M0 0 C0 2.64 0 5.28 0 8 C-0.99 8.33 -1.98 8.66 -3 9 C-3 6.36 -3 3.72 -3 1 C-1 0 -1 0 0 0 Z " fill="#35889D" transform="translate(491,131)"/>
<path d="M0 0 C2.1875 -0.3125 2.1875 -0.3125 5 0 C7.8125 2.5 7.8125 2.5 10 5 C5.75354935 5 3.61475228 3.18249194 0 1 C0 0.67 0 0.34 0 0 Z " fill="#CD7FBE" transform="translate(68,233)"/>
<path d="M0 0 C1.98 0.495 1.98 0.495 4 1 C3.34 2.98 2.68 4.96 2 7 C1.01 6.67 0.02 6.34 -1 6 C-0.67 4.02 -0.34 2.04 0 0 Z " fill="#02657E" transform="translate(472,181)"/>
<path d="M0 0 C0.268125 0.639375 0.53625 1.27875 0.8125 1.9375 C1.88667752 4.33131686 1.88667752 4.33131686 5 5 C4.34 6.98 3.68 8.96 3 11 C2.896875 10.38125 2.79375 9.7625 2.6875 9.125 C2.12474627 6.63473516 2.12474627 6.63473516 -1 5 C-0.67 3.35 -0.34 1.7 0 0 Z " fill="#4597AA" transform="translate(473,176)"/>
<path d="M0 0 C2.475 0.99 2.475 0.99 5 2 C4.34 3.65 3.68 5.3 3 7 C2.01 6.67 1.02 6.34 0 6 C0 4 0 4 1 3 C0.34 3 -0.32 3 -1 3 C-0.67 2.01 -0.34 1.02 0 0 Z " fill="#63A9BB" transform="translate(555,205)"/>
<path d="M0 0 C2.97 0.495 2.97 0.495 6 1 C4.5625 2.5625 4.5625 2.5625 2 4 C-1.05380927 3.96846324 -3.99653222 3.53266629 -7 3 C-7 2.67 -7 2.34 -7 2 C-4.69 2 -2.38 2 0 2 C0 1.34 0 0.68 0 0 Z " fill="#6AB1C1" transform="translate(572,156)"/>
<path d="M0 0 C1.5 1.375 1.5 1.375 3 3 C3 3.66 3 4.32 3 5 C0.75 5.6875 0.75 5.6875 -2 6 C-4.3125 4.5625 -4.3125 4.5625 -6 3 C-4.02 2.67 -2.04 2.34 0 2 C0 1.34 0 0.68 0 0 Z " fill="#7BB9C4" transform="translate(557,197)"/>
<path d="M0 0 C1.65 0 3.3 0 5 0 C5 1.65 5 3.3 5 5 C2.525 4.01 2.525 4.01 0 3 C0 2.01 0 1.02 0 0 Z " fill="#0A677E" transform="translate(494,156)"/>
<path d="M0 0 C0.66 0.33 1.32 0.66 2 1 C2 1.99 2 2.98 2 4 C-0.5 5.6875 -0.5 5.6875 -3 7 C-3.1875 4.625 -3.1875 4.625 -3 2 C-2.01 1.34 -1.02 0.68 0 0 Z " fill="#1A7791" transform="translate(468,190)"/>
<path d="M0 0 C0.66 0.99 1.32 1.98 2 3 C1.34 4.32 0.68 5.64 0 7 C-0.99 6.67 -1.98 6.34 -3 6 C-2.42655063 3.13275314 -2.1385485 2.1385485 0 0 Z " fill="#53A3B9" transform="translate(476,164)"/>
<path d="M0 0 C0.99 0 1.98 0 3 0 C3 1.32 3 2.64 3 4 C1.02 4.66 -0.96 5.32 -3 6 C-2.67 4.68 -2.34 3.36 -2 2 C-1.34 2 -0.68 2 0 2 C0 1.34 0 0.68 0 0 Z " fill="#036680" transform="translate(438,148)"/>
<path d="M0 0 C0.99 0 1.98 0 3 0 C3 1.65 3 3.3 3 5 C1.68 5 0.36 5 -1 5 C-0.67 3.35 -0.34 1.7 0 0 Z " fill="#026785" transform="translate(496,176)"/>
<path d="M0 0 C2.31 0 4.62 0 7 0 C6.67 0.66 6.34 1.32 6 2 C5.34 2 4.68 2 4 2 C4 2.66 4 3.32 4 4 C1.525 3.01 1.525 3.01 -1 2 C-0.67 1.34 -0.34 0.68 0 0 Z " fill="#06667E" transform="translate(484,128)"/>
<path d="M0 0 C1.65 0 3.3 0 5 0 C5 0.99 5 1.98 5 3 C2.36 3 -0.28 3 -3 3 C-2.01 2.67 -1.02 2.34 0 2 C0 1.34 0 0.68 0 0 Z " fill="#17697F" transform="translate(527,197)"/>
<path d="M0 0 C0 0.99 0 1.98 0 3 C0.99 4.485 0.99 4.485 2 6 C0.02 6 -1.96 6 -4 6 C-4 5.01 -4 4.02 -4 3 C-2 1.3125 -2 1.3125 0 0 Z " fill="#3F94A9" transform="translate(580,173)"/>
<path d="M0 0 C-0.33 0.66 -0.66 1.32 -1 2 C-3.3140622 2.73075648 -5.64828869 3.40138258 -8 4 C-5.97675095 -0.48005146 -4.79569304 -1.43870791 0 0 Z " fill="#207790" transform="translate(538,160)"/>
<path d="M0 0 C1.32 0.66 2.64 1.32 4 2 C0.04 3.98 0.04 3.98 -4 6 C-4 5.01 -4 4.02 -4 3 C-3.01 2.34 -2.02 1.68 -1 1 C-0.67 0.67 -0.34 0.34 0 0 Z " fill="#CA7CB8" transform="translate(162,257)"/>
<path d="M0 0 C2.475 0.99 2.475 0.99 5 2 C3.25 3.5625 3.25 3.5625 1 5 C-1.25 4.6875 -1.25 4.6875 -3 4 C-2.34 3.34 -1.68 2.68 -1 2 C-0.67 1.34 -0.34 0.68 0 0 Z " fill="#51A1B6" transform="translate(200,233)"/>
<path d="M0 0 C0 0.66 0 1.32 0 2 C1.32 2.33 2.64 2.66 4 3 C2.02 3.33 0.04 3.66 -2 4 C-2 3.34 -2 2.68 -2 2 C-3.32 1.67 -4.64 1.34 -6 1 C-3.92446352 0.4465236 -2.15634036 0 0 0 Z " fill="#63ABBB" transform="translate(576,177)"/>
<path d="M0 0 C0.33 0.66 0.66 1.32 1 2 C0.3125 4.0625 0.3125 4.0625 -1 6 C-3.125 6.75 -3.125 6.75 -5 7 C-3.70700306 4.11562221 -2.34058637 2.12780579 0 0 Z " fill="#569FB6" transform="translate(441,143)"/>
</svg>
